<svg xmlns="http://www.w3.org/2000/svg"  viewBox="0 0 64 64" width="150px" height="150px"><circle cx="48" cy="13.5" r="4" fill="#3e3ef4"/><path fill="#3e3ef4" d="M59,.5H37A4.50491,4.50491,0,0,0,32.5,5V31A4.50491,4.50491,0,0,0,37,35.5H59A4.50491,4.50491,0,0,0,63.5,31V5A4.50491,4.50491,0,0,0,59,.5ZM57.5,28a1.5,1.5,0,0,1-3,0V27a6.5,6.5,0,0,0-13,0v1a1.5,1.5,0,0,1-3,0V27a9.50217,9.50217,0,0,1,4.85461-8.2782,7,7,0,1,1,9.29078,0A9.50217,9.50217,0,0,1,57.5,27Z"/><path d="M62,38.5A1.50039,1.50039,0,0,0,60.5,40V59A1.50164,1.50164,0,0,1,59,60.5H56.47467a9.49978,9.49978,0,0,0-4.82935-7.77826,7,7,0,1,0-9.29064,0A9.49978,9.49978,0,0,0,37.52533,60.5H33.5V40a1.5,1.5,0,0,0-3,0V60.5H26.47467a9.49978,9.49978,0,0,0-4.82935-7.77826,7,7,0,1,0-9.29064,0A9.49978,9.49978,0,0,0,7.52533,60.5H5A1.50164,1.50164,0,0,1,3.5,59V37.5H28a1.5,1.5,0,0,0,0-3H26.47467a9.49986,9.49986,0,0,0-4.82928-7.7782,7,7,0,1,0-9.29078,0A9.49986,9.49986,0,0,0,7.52533,34.5H3.5v-23H28a1.5,1.5,0,0,0,0-3H3.5V5A1.50164,1.50164,0,0,1,5,3.5H30a1.5,1.5,0,0,0,0-3H5A4.50491,4.50491,0,0,0,.5,5V59A4.50491,4.50491,0,0,0,5,63.5H59A4.50491,4.50491,0,0,0,63.5,59V40A1.50039,1.50039,0,0,0,62,38.5Zm-49-17a4,4,0,1,1,4,4A4.00427,4.00427,0,0,1,13,21.5Zm4,7a6.50452,6.50452,0,0,1,6.47467,6H10.52533A6.50452,6.50452,0,0,1,17,28.5Zm26,19a4,4,0,1,1,4,4A4.004,4.004,0,0,1,43,47.5Zm4,7a6.50452,6.50452,0,0,1,6.47467,6H40.52533A6.50452,6.50452,0,0,1,47,54.5Zm-34-7a4,4,0,1,1,4,4A4.004,4.004,0,0,1,13,47.5Zm4,7a6.50452,6.50452,0,0,1,6.47467,6H10.52533A6.50452,6.50452,0,0,1,17,54.5Z"/></svg>