<svg xmlns="http://www.w3.org/2000/svg"  viewBox="0 0 64 64" width="150px" height="150px"><path d="M60,.5H37A3.50424,3.50424,0,0,0,33.5,4V14a1.5,1.5,0,0,0,3,0V9.5h24v11H54a1.5,1.5,0,0,0,0,3h6.5v7H54a1.5,1.5,0,0,0,0,3h6.5v7H54a1.5,1.5,0,0,0,0,3h6.5v11h-24V50a1.5,1.5,0,0,0-3,0V60A3.50424,3.50424,0,0,0,37,63.5H60A3.50424,3.50424,0,0,0,63.5,60V4A3.50424,3.50424,0,0,0,60,.5Zm-23.5,6V4a.50065.50065,0,0,1,.5-.5H60a.50065.50065,0,0,1,.5.5V6.5ZM60,60.5H37a.50065.50065,0,0,1-.5-.5V57.5h24V60A.50065.50065,0,0,1,60,60.5Z"/><path d="M27,.5H4A3.50424,3.50424,0,0,0,.5,4V60A3.50424,3.50424,0,0,0,4,63.5H27A3.50424,3.50424,0,0,0,30.5,60V50a1.5,1.5,0,0,0-3,0v4.5H3.5v-11H10a1.5,1.5,0,0,0,0-3H3.5v-7H10a1.5,1.5,0,0,0,0-3H3.5v-7H10a1.5,1.5,0,0,0,0-3H3.5V9.5h24V14a1.5,1.5,0,0,0,3,0V4A3.50424,3.50424,0,0,0,27,.5Zm.5,57V60a.50065.50065,0,0,1-.5.5H4a.50065.50065,0,0,1-.5-.5V57.5Zm-24-51V4A.50065.50065,0,0,1,4,3.5H27a.50065.50065,0,0,1,.5.5V6.5Z"/><path fill="#3e3ef4" d="M46,18.5H18A3.50424,3.50424,0,0,0,14.5,22V42A3.50424,3.50424,0,0,0,18,45.5H46A3.50424,3.50424,0,0,0,49.5,42V22A3.50424,3.50424,0,0,0,46,18.5Zm-24,8H38.37891l-1.43946-1.43945a1.49984,1.49984,0,0,1,2.1211-2.1211l4,4A1.50114,1.50114,0,0,1,42,29.5H22a1.5,1.5,0,0,1,0-3Zm20,11H25.62109l1.43946,1.43945a1.49984,1.49984,0,0,1-2.1211,2.1211l-4-4A1.50114,1.50114,0,0,1,22,34.5H42a1.5,1.5,0,0,1,0,3Z"/></svg>