<svg xmlns="http://www.w3.org/2000/svg"  viewBox="0 0 64 64" width="150px" height="150px"><circle cx="32" cy="32" r="4.5" fill="#3e3ef4"/><path fill="#3e3ef4" d="M44.44336,33.10547a10.82922,10.82922,0,0,0,0-2.21192l2.42285-2.12841a2.50692,2.50692,0,0,0,.5127-3.127l-2.17969-3.77636a2.50661,2.50661,0,0,0-2.96582-1.11817l-3.05078,1.03174a12.50479,12.50479,0,0,0-1.918-1.10351l-.63281-3.16309A2.50732,2.50732,0,0,0,34.18066,15.5H29.81934a2.50722,2.50722,0,0,0-2.45118,2.00977l-.63281,3.16211a12.49208,12.49208,0,0,0-1.918,1.10351l-3.0498-1.03174a2.506,2.506,0,0,0-2.9668,1.11817l-2.17969,3.77636a2.50744,2.50744,0,0,0,.51368,3.12793l2.42187,2.12744a10.82774,10.82774,0,0,0,0,2.21192l-2.42383,2.12988a2.5096,2.5096,0,0,0-.51172,3.127l2.17871,3.77442a2.50265,2.50265,0,0,0,2.9668,1.11914l3.05078-1.03125a12.55756,12.55756,0,0,0,1.918,1.10351l.63281,3.16309A2.50732,2.50732,0,0,0,29.81934,48.5h4.36132a2.50722,2.50722,0,0,0,2.45118-2.00977l.63281-3.16211a12.51126,12.51126,0,0,0,1.918-1.10351l3.04883,1.03027a2.50149,2.50149,0,0,0,2.96777-1.11718l2.18066-3.77637a2.511,2.511,0,0,0-.51465-3.12793ZM32,39.5A7.5,7.5,0,1,1,39.5,32,7.5082,7.5082,0,0,1,32,39.5Z"/><path d="M62,23.5a1.5,1.5,0,0,0,0-3H57.5V15.34882A7.50019,7.50019,0,1,0,48.65118,6.5H43.5V2a1.5,1.5,0,0,0-3,0V6.5h-7V2a1.5,1.5,0,0,0-3,0V6.5h-7V2a1.5,1.5,0,0,0-3,0V6.5H15.34882A7.50019,7.50019,0,1,0,6.5,15.34882V20.5H2a1.5,1.5,0,0,0,0,3H6.5v7H2a1.5,1.5,0,0,0,0,3H6.5v7H2a1.5,1.5,0,0,0,0,3H6.5v5.15118A7.50019,7.50019,0,1,0,15.34882,57.5H20.5V62a1.5,1.5,0,0,0,3,0V57.5h7V62a1.5,1.5,0,0,0,3,0V57.5h7V62a1.5,1.5,0,0,0,3,0V57.5h5.15118A7.50019,7.50019,0,1,0,57.5,48.65118V43.5H62a1.5,1.5,0,0,0,0-3H57.5v-7H62a1.5,1.5,0,0,0,0-3H57.5v-7Zm-13.34882,31H15.34882A7.52128,7.52128,0,0,0,9.5,48.65118V15.34882A7.52128,7.52128,0,0,0,15.34882,9.5H48.65118A7.52128,7.52128,0,0,0,54.5,15.34882V48.65118A7.52128,7.52128,0,0,0,48.65118,54.5ZM56,3.5A4.5,4.5,0,1,1,51.5,8,4.50491,4.50491,0,0,1,56,3.5ZM3.5,8A4.5,4.5,0,1,1,8,12.5,4.50491,4.50491,0,0,1,3.5,8ZM8,60.5A4.5,4.5,0,1,1,12.5,56,4.50491,4.50491,0,0,1,8,60.5ZM60.5,56A4.5,4.5,0,1,1,56,51.5,4.50491,4.50491,0,0,1,60.5,56Z"/></svg>