<svg xmlns="http://www.w3.org/2000/svg"  viewBox="0 0 64 64" width="150px" height="150px"><path d="M45,17.5A3.50424,3.50424,0,0,0,48.5,14V4A3.50424,3.50424,0,0,0,45,.5H4A3.50424,3.50424,0,0,0,.5,4V14A3.50424,3.50424,0,0,0,4,17.5H5.5v6H4A3.50424,3.50424,0,0,0,.5,27V37A3.50424,3.50424,0,0,0,4,40.5H5.5v6H4A3.50424,3.50424,0,0,0,.5,50V60A3.50424,3.50424,0,0,0,4,63.5H34a1.5,1.5,0,0,0,0-3H4a.50034.50034,0,0,1-.5-.5V50a.50034.50034,0,0,1,.5-.5H26a1.5,1.5,0,0,0,0-3H8.5v-6H28a1.5,1.5,0,0,0,0-3H4a.50034.50034,0,0,1-.5-.5V27a.50034.50034,0,0,1,.5-.5H45a.50034.50034,0,0,1,.5.5,1.5,1.5,0,0,0,3,0A3.50424,3.50424,0,0,0,45,23.5H43.5v-6ZM3.5,14V4A.50034.50034,0,0,1,4,3.5H45a.50034.50034,0,0,1,.5.5V14a.50034.50034,0,0,1-.5.5H4A.50034.50034,0,0,1,3.5,14Zm37,9.5H8.5v-6h32Z"/><path d="M25,10.5a1.5,1.5,0,0,0,0-3H8a1.5,1.5,0,0,0,0,3Z"/><path d="M31,10.5H41a1.5,1.5,0,0,0,0-3H31a1.5,1.5,0,0,0,0,3Z"/><path d="M8,30.5a1.5,1.5,0,0,0,0,3H25a1.5,1.5,0,0,0,0-3Z"/><path d="M31,30.5a1.5,1.5,0,0,0,0,3h2a1.5,1.5,0,0,0,0-3Z"/><path d="M8,53.5a1.5,1.5,0,0,0,0,3H25a1.5,1.5,0,0,0,0-3Z"/><path fill="#3e3ef4" d="M47,30.5A16.5,16.5,0,1,0,63.5,47,16.51868,16.51868,0,0,0,47,30.5Zm11.102,11.51758-12,13a1.50017,1.50017,0,0,1-2.1626.043l-6-6a1.49984,1.49984,0,0,1,2.1211-2.1211l4.896,4.896L55.898,39.98242a1.5,1.5,0,1,1,2.2041,2.03516Z"/></svg>