<svg xmlns="http://www.w3.org/2000/svg"  viewBox="0 0 64 64" width="150px" height="150px"><path fill="#3e3ef4" d="M47,.5A16.5,16.5,0,1,0,63.5,17,16.519,16.519,0,0,0,47,.5ZM44.81018,23.77148a64.25318,64.25318,0,0,1-6.79639-.09765,1.64275,1.64275,0,0,1-1.00732-1.02344c-.25439-.82519.10889-1.30176.90527-2.34375.62744-.82129,1.79493-2.35059,3.751-5.14551a4.64932,4.64932,0,0,0,1.10254-2.38183,1.66372,1.66372,0,0,0-3.29346-.24414,1.4998,1.4998,0,1,1-2.94336-.57813,4.66349,4.66349,0,0,1,9.23877.90235,8.12109,8.12109,0,0,1-1.64648,4.02246c-1.22266,1.74609-2.14356,3.00878-2.82129,3.918,1.05615-.00292,2.29883-.01367,3.47265-.02832h.01954a1.50006,1.50006,0,0,1,.01855,3Zm11.18994-3.74121h-.09131c-.00683.97168-.01367,1.752-.01709,2.16114a1.50013,1.50013,0,0,1-1.49951,1.4873H54.379A1.49982,1.49982,0,0,1,52.89172,22.166c.00586-.65625.01172-1.38086.01709-2.13575H48.23694a1.501,1.501,0,0,1-1.31348-2.22461c.97949-1.77539,4.231-7.63574,4.93946-8.50488a2.21386,2.21386,0,0,1,4.05468,1.24805c.03662.43847.02832,3.54492.01123,6.48144h.07129a1.5,1.5,0,1,1,0,3Z"/><path fill="#3e3ef4" d="M52.92883,17.03027c.00782-1.38086.01319-2.71289.01514-3.792-.61182,1.05176-1.374,2.39258-2.15723,3.792Z"/><path d="M61.99945,30.5a1.50008,1.50008,0,0,0-1.5,1.5,28.53242,28.53242,0,0,1-28.5,28.5h-4.75V44a3.50424,3.50424,0,0,0-3.5-3.5h-7.75v-17h7.75a3.50424,3.50424,0,0,0,3.5-3.5V4.001a3.49814,3.49814,0,0,0-3.49756-3.5h-.00342L10.69525.50488a5.5462,5.5462,0,0,0-5.168,3.60254,79.89013,79.89013,0,0,0,.00049,55.78613,5.54541,5.54541,0,0,0,5.167,3.60157c6.63778.00322,15.75453.004,21.30469.00488a31.5357,31.5357,0,0,0,31.5-31.5A1.50008,1.50008,0,0,0,61.99945,30.5Zm-40.75-26.99829,2.501-.00073h.00049a.49893.49893,0,0,1,.49853.5V20a.50065.50065,0,0,1-.5.5h-2.5Zm-3,56.99615-7.5542-.00274A2.53278,2.53278,0,0,1,8.33881,58.8457,76.89034,76.89034,0,0,1,8.33832,5.15527a2.53357,2.53357,0,0,1,2.35742-1.65039l7.55371-.00226V20.5h-2.75a2.50263,2.50263,0,0,0-2.5,2.5V41a2.50263,2.50263,0,0,0,2.5,2.5h2.75Zm6,.00214-3-.0011V43.5h2.5a.50065.50065,0,0,1,.5.5Z"/></svg>