<svg xmlns="http://www.w3.org/2000/svg"  viewBox="0 0 64 64" width="150px" height="150px"><path d="M60,1.5H4A3.50424,3.50424,0,0,0,.5,5V52A3.50424,3.50424,0,0,0,4,55.5h7a1.5,1.5,0,0,0,0-3H4a.50065.50065,0,0,1-.5-.5V13.5h57V52a.50065.50065,0,0,1-.5.5H53a1.5,1.5,0,0,0,0,3h7A3.50424,3.50424,0,0,0,63.5,52V5A3.50424,3.50424,0,0,0,60,1.5Zm-56.5,9V5A.50065.50065,0,0,1,4,4.5H60a.50065.50065,0,0,1,.5.5v5.5Z"/><path d="M16.126,16.124A9.37378,9.37378,0,1,0,25.5,25.49756,9.38422,9.38422,0,0,0,16.126,16.124Zm6.18835,7.87354H17.626V19.30969A6.38627,6.38627,0,0,1,22.31433,23.99756Zm-6.18835,7.874a6.37012,6.37012,0,0,1-1.5-12.56183v6.18781a1.50007,1.50007,0,0,0,1.5,1.5h6.18835A6.38,6.38,0,0,1,16.126,31.87158Z"/><path d="M51.16309,19.5H56.0293a1.5,1.5,0,1,0,0-3H51.16309a1.5,1.5,0,0,0,0,3Z"/><path d="M51.16309,26.5H56.0293a1.5,1.5,0,1,0,0-3H51.16309a1.5,1.5,0,0,0,0,3Z"/><path d="M57.5293,32a1.50008,1.50008,0,0,0-1.5-1.5H51.16309a1.5,1.5,0,0,0,0,3H56.0293A1.50008,1.50008,0,0,0,57.5293,32Z"/><path d="M45.09766,16.5H29.62988a1.5,1.5,0,0,0,0,3H45.09766a1.5,1.5,0,0,0,0-3Z"/><path d="M45.09766,23.5H29.62988a1.5,1.5,0,0,0,0,3H45.09766a1.5,1.5,0,0,0,0-3Z"/><path d="M45.09766,30.5H29.62988a1.5,1.5,0,0,0,0,3H45.09766a1.5,1.5,0,0,0,0-3Z"/><path fill="#3e3ef4" d="M42.16669,36.5H21.83331A5.83335,5.83335,0,0,0,16,42.33331V56.66669A5.83335,5.83335,0,0,0,21.83331,62.5H42.16669A5.83335,5.83335,0,0,0,48,56.66669V42.33331A5.83335,5.83335,0,0,0,42.16669,36.5Zm.89093,13.05762H36.35449l-2.49511,5.82177a1.5007,1.5007,0,0,1-2.78907-.07812l-2.76953-7.61816L27.03613,49.791a1.49986,1.49986,0,0,1-1.28613.728H20.94238a1.5,1.5,0,0,1,0-3h3.958l2.44824-4.07959a1.50184,1.50184,0,0,1,2.69629.25928l2.54981,7.01514,1.3916-3.24707a1.50035,1.50035,0,0,1,1.3789-.90918h7.69239a1.5,1.5,0,0,1,0,3Z"/></svg>