<svg xmlns="http://www.w3.org/2000/svg"  viewBox="0 0 64 64" width="150px" height="150px"><path fill="#3e3ef4" d="M55.03455,45.16864c.66134-.84641,1.81252-2.61229,1.276-3.54364-.54624-.94367-2.6373-.812-3.72126-.65894a25.26557,25.26557,0,0,1,.44391,2.53968A24.7632,24.7632,0,0,1,55.03455,45.16864Z"/><path fill="#3e3ef4" d="M50.66614,44.88159A26.2539,26.2539,0,0,0,47,42.773a26.247,26.247,0,0,0-3.66614,2.1087,26.80763,26.80763,0,0,0,0,4.2367,27.122,27.122,0,0,0,3.66608,2.11487,27.12012,27.12012,0,0,0,3.6662-2.11481A26.80915,26.80915,0,0,0,50.66614,44.88159Z"/><path fill="#3e3ef4" d="M49.43817,39.14044C48.69348,37.28888,47.76123,36.25,47,36.25c-.76117,0-1.6933,1.03876-2.438,2.89a25.2686,25.2686,0,0,1,2.43817.89191A25.26778,25.26778,0,0,1,49.43817,39.14044Z"/><path fill="#3e3ef4" d="M44.55945,54.85413C45.3045,56.70929,46.238,57.75,47,57.75s1.6955-1.04071,2.44055-2.89587a25.25829,25.25829,0,0,1-2.44043-.89368A25.26231,25.26231,0,0,1,44.55945,54.85413Z"/><path fill="#3e3ef4" d="M55.03455,48.83136a24.7632,24.7632,0,0,1-2.00135,1.6629,25.26274,25.26274,0,0,1-.44586,2.54743c1.97577.28076,3.34162-.00751,3.72321-.66669C56.84707,51.44366,55.6959,49.67778,55.03455,48.83136Z"/><path fill="#3e3ef4" d="M47,30.5A16.5,16.5,0,1,0,63.5,47,16.51929,16.51929,0,0,0,47,30.5ZM58.47559,53.625c-1.23795,2.14243-4.1522,2.229-6.60254,1.81543C50.821,58.266,49.18384,60.25,47,60.25s-3.821-1.98395-4.873-4.80957a13.00731,13.00731,0,0,1-2.13965.20117c-2.0166,0-3.64355-.59863-4.46289-2.0166C34.29859,51.50187,35.682,48.88888,37.2356,47c-1.5503-1.8849-2.93825-4.49971-1.71119-6.625,1.0932-1.89221,3.63-2.318,6.60279-1.8161C43.17926,35.73364,44.81635,33.75,47,33.75c2.18384,0,3.821,1.984,4.873,4.80957,2.973-.50165,5.50982-.07574,6.60254,1.81543C59.70141,42.49813,58.318,45.11112,56.7644,47,58.3147,48.8849,59.70265,51.49971,58.47559,53.625Z"/><path fill="#3e3ef4" d="M38.96545,48.83136c-.66134.84641-1.81252,2.61229-1.276,3.54364.38159.66016,1.74756.94812,3.72333.66705a25.249,25.249,0,0,1-.446-2.54779A24.7632,24.7632,0,0,1,38.96545,48.83136Z"/><path fill="#3e3ef4" d="M38.96545,45.16864a24.7632,24.7632,0,0,1,2.00135-1.6629,25.26557,25.26557,0,0,1,.44391-2.53968c-1.08443-.15316-3.175-.28475-3.72126.65894C37.15293,42.55634,38.3041,44.32222,38.96545,45.16864Z"/><path d="M60,19.5A3.50424,3.50424,0,0,0,63.5,16V4A3.50424,3.50424,0,0,0,60,.5H4A3.50424,3.50424,0,0,0,.5,4V16A3.50424,3.50424,0,0,0,4,19.5H6.5v3H4A3.50424,3.50424,0,0,0,.5,26V38A3.50424,3.50424,0,0,0,4,41.5H6.5v3H4A3.50424,3.50424,0,0,0,.5,48V60A3.50424,3.50424,0,0,0,4,63.5H33a1.5,1.5,0,0,0,0-3H4a.501.501,0,0,1-.5-.5V48a.501.501,0,0,1,.5-.5H26a1.5,1.5,0,0,0,0-3H9.5v-3H26a1.5,1.5,0,0,0,0-3H4a.501.501,0,0,1-.5-.5V26a.501.501,0,0,1,.5-.5H60a.501.501,0,0,1,.5.5v5a1.5,1.5,0,0,0,3,0V26A3.50424,3.50424,0,0,0,60,22.5H57.5v-3ZM3.5,16V4A.501.501,0,0,1,4,3.5H60a.501.501,0,0,1,.5.5V16a.501.501,0,0,1-.5.5H4A.501.501,0,0,1,3.5,16Zm51,6.5H9.5v-3h45Z"/><circle cx="9.5" cy="10" r="2"/><circle cx="16.5" cy="10" r="2"/><circle cx="23.5" cy="10" r="2"/><path d="M32,11.5H56a1.5,1.5,0,0,0,0-3H32a1.5,1.5,0,0,0,0,3Z"/><circle cx="9.5" cy="32" r="2"/><circle cx="16.5" cy="32" r="2"/><circle cx="23.5" cy="32" r="2"/><circle cx="9.5" cy="54" r="2"/><circle cx="16.5" cy="54" r="2"/><circle cx="23.5" cy="54" r="2"/></svg>