<svg xmlns="http://www.w3.org/2000/svg"  viewBox="0 0 96 96" width="200px" height="200px"><path fill="#619fff" d="M95,59.5V71c0,3.65-8.73,6.62-19.5,6.62S56,74.65,56,71V59.5Z"/><path fill="#dbecff" d="M95,48V59.5c0,3.66-8.73,6.62-19.5,6.62S56,63.16,56,59.5V48Z"/><path fill="#619fff" d="M95,36.5V48c0,3.66-8.73,6.62-19.5,6.62S56,51.66,56,48V36.5Z"/><path fill="#dbecff" d="M95,25V36.5c0,3.66-8.73,6.63-19.5,6.63S56,40.16,56,36.5V25Z"/><path fill="#6177eb" d="M73.5,59.5H56V71c0,3.43,7.69,6.25,17.53,6.59Z"/><path fill="#b3bfff" d="M73.5,48H56V59.5c0,3.43,7.69,6.25,17.53,6.59Z"/><path fill="#6177eb" d="M73.5,36.5H56V48c0,3.43,7.69,6.26,17.53,6.59Z"/><path fill="#b3bfff" d="M73.5,25H56V36.5c0,3.44,7.69,6.26,17.53,6.59Z"/><ellipse cx="75.46" cy="25" fill="#f9f6ff" rx="19.5" ry="6.62"/><path fill="#fff" d="M64.25,26.3a1.35,1.35,0,0,1,0-2.59,47.73,47.73,0,0,1,22.42,0,1.34,1.34,0,0,1,0,2.59A48,48,0,0,1,64.25,26.3Z"/><path fill="#5955a1" d="M90.47,33.9a13.44,13.44,0,0,0,1.37-.69,1,1,0,1,1,1,1.72,14.53,14.53,0,0,1-1.58.8A1,1,0,0,1,90.47,33.9Z"/><path fill="#5955a1" d="M86.41,37.24a1,1,0,0,1-.23-2c.59-.13,1.16-.28,1.7-.44a1,1,0,0,1,.56,1.92A17.21,17.21,0,0,1,86.41,37.24Z"/><path fill="#5955a1" d="M81.15,38.09a1,1,0,0,1-.1-2c.67-.07,1.32-.15,2-.25a1,1,0,0,1,1.14.85,1,1,0,0,1-.85,1.13C83,37.88,81.39,38.09,81.15,38.09Z"/><path fill="#5955a1" d="M90.47,45.39a13.44,13.44,0,0,0,1.37-.69,1,1,0,0,1,1,1.73,14.54,14.54,0,0,1-1.58.79A1,1,0,0,1,90.47,45.39Z"/><path fill="#5955a1" d="M86.41,48.73a1,1,0,0,1-.23-2c.59-.14,1.16-.29,1.7-.44a1,1,0,0,1,.56,1.92A18.79,18.79,0,0,1,86.41,48.73Z"/><path fill="#5955a1" d="M81.15,49.59a1,1,0,0,1-.1-2q1-.11,2-.24a1,1,0,1,1,.29,2C83,49.38,81.39,49.59,81.15,49.59Z"/><path fill="#5955a1" d="M90.47,56.89a13.44,13.44,0,0,0,1.37-.69,1,1,0,1,1,1,1.72,13.67,13.67,0,0,1-1.58.8A1,1,0,0,1,90.47,56.89Z"/><path fill="#5955a1" d="M86.41,60.23a1,1,0,0,1-.23-2c.59-.13,1.16-.28,1.7-.44a1,1,0,0,1,.56,1.92A18.8,18.8,0,0,1,86.41,60.23Z"/><path fill="#5955a1" d="M81.15,61.08a1,1,0,0,1-.1-2c.67-.07,1.32-.15,2-.25a1,1,0,0,1,1.14.85,1,1,0,0,1-.85,1.13C83,60.87,81.39,61.08,81.15,61.08Z"/><path fill="#5955a1" d="M90.87,70.3a1,1,0,0,1-.4-1.92,11.64,11.64,0,0,0,1.37-.69,1,1,0,0,1,1,1.73c-.47.27-1,.54-1.58.8A1.1,1.1,0,0,1,90.87,70.3Z"/><path fill="#5955a1" d="M86.41,71.72a1,1,0,0,1-.23-2c.59-.14,1.16-.28,1.7-.44a1,1,0,0,1,.56,1.92A18.79,18.79,0,0,1,86.41,71.72Z"/><path fill="#5955a1" d="M81.15,72.58a1,1,0,0,1-.1-2q1-.1,2-.24a1,1,0,1,1,.29,2C82.93,72.37,81.38,72.58,81.15,72.58Z"/><path fill="#619fff" d="M40,59.5V71c0,3.65-8.73,6.62-19.49,6.62S1,74.65,1,71V59.5Z"/><path fill="#dbecff" d="M40,48V59.5c0,3.66-8.73,6.62-19.49,6.62S1,63.16,1,59.5V48Z"/><path fill="#619fff" d="M40,36.5V48c0,3.66-8.73,6.62-19.49,6.62S1,51.66,1,48V36.5Z"/><path fill="#dbecff" d="M40,25V36.5c0,3.66-8.73,6.63-19.49,6.63S1,40.16,1,36.5V25Z"/><path fill="#6177eb" d="M22.83,59.5V77.57C32.51,77.18,40,74.39,40,71V59.5Z"/><path fill="#b3bfff" d="M22.83,48V66.07C32.51,65.68,40,62.9,40,59.5V48Z"/><path fill="#6177eb" d="M22.83,36.5V54.57C32.51,54.18,40,51.4,40,48V36.5Z"/><path fill="#b3bfff" d="M22.83,25V43.08C32.51,42.69,40,39.9,40,36.5V25Z"/><ellipse cx="20.54" cy="25" fill="#f9f6ff" rx="19.5" ry="6.62"/><ellipse cx="20.54" cy="25" fill="#fff" rx="13.37" ry="2.37"/><path fill="#5955a1" d="M17.82,38.4C12.91,38.19,4.92,37.1,1,34.21V31.13C1.57,33.4,8.21,36,17.91,36.4A1,1,0,0,1,17.82,38.4Z"/><path fill="#5955a1" d="M17.82,49.81C12.92,49.6,4.93,48.54,1,45.63V42.54c.53,2.27,7.17,4.85,16.87,5.27A1,1,0,0,1,17.82,49.81Z"/><path fill="#5955a1" d="M17.82,61.23C12.92,61,4.9,59.94,1,57V54c.53,2.26,7.17,4.85,16.87,5.27A1,1,0,0,1,17.82,61.23Z"/><path fill="#5955a1" d="M17.82,72.64C11.27,72.35,4.37,71,1,68.46V65.37c.53,2.27,7.17,4.85,16.87,5.27A1,1,0,0,1,17.82,72.64Z"/><path fill="#5955a1" d="M67.5,67.25v11.5c0,3.65-8.73,6.62-19.5,6.62s-19.5-3-19.5-6.62V67.25Z"/><path fill="#90a5d8" d="M67.5,67.25V70c0,3.66-8.73,6.62-19.5,6.62s-19.5-3-19.5-6.62V67.25c0,3.66,8.73,6.62,19.5,6.62S67.5,70.91,67.5,67.25Z"/><path fill="#45467e" d="M45.62,73.82v11.5C36,84.92,28.5,82.13,28.5,78.75V67.25c0,3.39,7.47,6.17,17.12,6.57Z"/><path fill="#7282bf" d="M67.5,55.75v11.5c0,3.66-8.73,6.62-19.5,6.62s-19.5-3-19.5-6.62V55.75Z"/><path fill="#90a5d8" d="M67.5,55.75V58.5c0,3.66-8.73,6.62-19.5,6.62s-19.5-3-19.5-6.62V55.75c0,3.66,8.73,6.62,19.5,6.62S67.5,59.41,67.5,55.75Z"/><path fill="#5955a1" d="M67.5,44.25v11.5c0,3.66-8.73,6.62-19.5,6.62s-19.5-3-19.5-6.62V44.25Z"/><path fill="#90a5d8" d="M67.5,44.25V47c0,3.66-8.73,6.62-19.5,6.62s-19.5-3-19.5-6.62V44.25c0,3.66,8.73,6.62,19.5,6.62S67.5,47.91,67.5,44.25Z"/><path fill="#45467e" d="M45.62,50.82v11.5C36,61.92,28.5,59.13,28.5,55.75V44.25c0,3.39,7.47,6.17,17.12,6.57Z"/><path fill="#7282bf" d="M67.5,32.75v11.5c0,3.66-8.73,6.62-19.5,6.62s-19.5-3-19.5-6.62V32.75Z"/><path fill="#90a5d8" d="M67.5,32.75V35.5c0,3.66-8.73,6.62-19.5,6.62s-19.5-3-19.5-6.62V32.75c0,3.66,8.73,6.62,19.5,6.62S67.5,36.41,67.5,32.75Z"/><path fill="#5955a1" d="M67.5,21.25v11.5c0,3.66-8.73,6.63-19.5,6.63s-19.5-3-19.5-6.63V21.25Z"/><path fill="#90a5d8" d="M67.5,21.25V24c0,3.66-8.73,6.62-19.5,6.62s-19.5-3-19.5-6.62V21.25c0,3.66,8.73,6.62,19.5,6.62S67.5,24.91,67.5,21.25Z"/><path fill="#45467e" d="M45.62,27.82v11.5C36,38.92,28.5,36.13,28.5,32.75V21.25c0,3.39,7.47,6.17,17.12,6.57Z"/><path fill="#5e69a6" d="M45.62,39.32v11.5C36,50.42,28.5,47.63,28.5,44.25V32.75c0,3.39,7.47,6.17,17.12,6.57Z"/><path fill="#5e69a6" d="M45.62,62.32v11.5C36,73.42,28.5,70.63,28.5,67.25V55.75c0,3.39,7.47,6.17,17.12,6.57Z"/><ellipse cx="48" cy="21.25" fill="#7282bf" rx="19.5" ry="6.62"/><path fill="#9aa5e2" d="M35.21,22.06a.85.85,0,0,1,0-1.61c6.9-2.42,18.66-2.43,25.58,0a.85.85,0,0,1,0,1.61C53.89,24.48,42.13,24.49,35.21,22.06Z"/><path fill="#fff" d="M67.5,27.44v3c-4.41,3.3-13.88,4.22-19.5,4.22a1,1,0,0,1,0-2C59.53,32.71,66.82,29.75,67.5,27.44Z"/><path fill="#fff" d="M67.5,38.85v3c-4.35,3.27-13.79,4.23-19.5,4.23a1,1,0,0,1-1-1,1,1,0,0,1,1-1C59.53,44.13,66.82,41.16,67.5,38.85Z"/><path fill="#fff" d="M67.5,50.27v3C63.14,56.6,53.62,57.54,48,57.54a1,1,0,0,1,0-2C59.53,55.54,66.82,52.58,67.5,50.27Z"/><path fill="#fff" d="M67.5,61.68v3.05C63.11,68,53.61,69,48,69a1,1,0,0,1-1-1,1,1,0,0,1,1-1C59.53,67,66.82,64,67.5,61.68Z"/><path fill="#fff" d="M67.5,72.75v3.36C63.84,78.9,55.74,80.37,48,80.37a1,1,0,0,1,0-2C60.08,78.37,67.5,75.09,67.5,72.75Z"/><path fill="#aed8ff" d="M32.59,43.56a1.14,1.14,0,0,1-.4-.08,14.53,14.53,0,0,1-1.58-.8,1,1,0,0,1,1-1.73,13.42,13.42,0,0,0,1.37.7A1,1,0,0,1,32.59,43.56Z"/><path fill="#aed8ff" d="M37.06,45a18.83,18.83,0,0,1-2-.5,1,1,0,0,1,.56-1.92c.54.16,1.1.31,1.69.44A1,1,0,0,1,37.06,45Z"/><path fill="#aed8ff" d="M42.31,45.84c-.24,0-1.75-.2-2.14-.26a1,1,0,0,1,.29-2c.64.09,1.29.18,2,.24a1,1,0,0,1-.11,2Z"/><path fill="#aed8ff" d="M32.59,55.06a1,1,0,0,1-.4-.09,14.53,14.53,0,0,1-1.58-.8,1,1,0,0,1-.36-1.36,1,1,0,0,1,1.37-.36,13.44,13.44,0,0,0,1.37.69A1,1,0,0,1,32.59,55.06Z"/><path fill="#aed8ff" d="M37.06,56.48A18.86,18.86,0,0,1,35,56a1,1,0,1,1,.56-1.92c.54.15,1.1.3,1.69.44A1,1,0,0,1,37.06,56.48Z"/><path fill="#aed8ff" d="M42.31,57.33c-.24,0-1.75-.2-2.14-.25a1,1,0,0,1,.29-2c.64.09,1.29.17,2,.24a1,1,0,0,1-.11,2Z"/><path fill="#aed8ff" d="M32.59,32.42a1,1,0,0,1-.4-.08,14.53,14.53,0,0,1-1.58-.8,1,1,0,1,1,1-1.72c.41.23.87.47,1.37.69A1,1,0,0,1,32.59,32.42Z"/><path fill="#aed8ff" d="M37.06,33.85a18.83,18.83,0,0,1-2-.5,1,1,0,0,1,.56-1.92c.54.16,1.1.31,1.69.44A1,1,0,0,1,37.06,33.85Z"/><path fill="#aed8ff" d="M42.31,34.7c-.24,0-1.75-.2-2.14-.26a1,1,0,0,1,.29-2c.64.1,1.29.18,2,.25a1,1,0,0,1-.11,2Z"/><path fill="#aed8ff" d="M32.59,66.55a1,1,0,0,1-.4-.08,15.51,15.51,0,0,1-1.58-.8,1,1,0,0,1-.36-1.37,1,1,0,0,1,1.37-.36,13.42,13.42,0,0,0,1.37.7A1,1,0,0,1,32.59,66.55Z"/><path fill="#aed8ff" d="M37.06,68a18.83,18.83,0,0,1-2-.5,1,1,0,1,1,.56-1.92c.54.16,1.1.31,1.69.44A1,1,0,0,1,37.06,68Z"/><path fill="#aed8ff" d="M42.31,68.83c-.24,0-1.75-.2-2.14-.26a1,1,0,0,1,.29-2c.64.1,1.29.18,2,.25a1,1,0,0,1-.11,2Z"/><path fill="#aed8ff" d="M32.59,78.05a1,1,0,0,1-.4-.09c-.57-.25-1.1-.52-1.58-.79a1,1,0,1,1,1-1.73,13.44,13.44,0,0,0,1.37.69A1,1,0,0,1,32.59,78.05Z"/><path fill="#aed8ff" d="M37.06,79.47A18.86,18.86,0,0,1,35,79a1,1,0,1,1,.56-1.92c.54.15,1.1.3,1.69.44A1,1,0,0,1,37.06,79.47Z"/><path fill="#aed8ff" d="M42.31,80.33c-.24,0-1.75-.2-2.14-.26a1,1,0,0,1,.29-2c.64.09,1.29.17,2,.24a1,1,0,0,1-.11,2Z"/></svg>