<svg xmlns="http://www.w3.org/2000/svg"  viewBox="0 0 64 64" width="150px" height="150px"><path d="M60,30.5H45a1.5,1.5,0,0,0,0,3h.5v7.062h-27V33.5H19a1.5,1.5,0,0,0,0-3H4A3.50424,3.50424,0,0,0,.5,34V60A3.50424,3.50424,0,0,0,4,63.5H60A3.50424,3.50424,0,0,0,63.5,60V34A3.50424,3.50424,0,0,0,60,30.5Zm-11.5,3H60a.50034.50034,0,0,1,.5.5v6.562h-12Zm12,16.93848h-27V43.562h27ZM3.5,43.562h27v6.87647H3.5Zm42,9.87647V60.5h-27V53.43848ZM4,33.5H15.5v7.062H3.5V34A.50034.50034,0,0,1,4,33.5ZM3.5,60V53.43848h12V60.5H4A.50034.50034,0,0,1,3.5,60Zm56.5.5H48.5V53.43848h12V60A.50034.50034,0,0,1,60,60.5Z"/><path fill="#3e3ef4" d="M39.70215,5.47371a1.50011,1.50011,0,0,0-2.33057.39746,15.83641,15.83641,0,0,1-2.99707,3.84034,14.74145,14.74145,0,0,1-.895-7.46241A1.501,1.501,0,0,0,31.37158.6407C30.80518.90193,17.5,7.18123,17.5,19.22518a14.50174,14.50174,0,0,0,29,0C46.5,14.2784,44.14941,9.523,39.70215,5.47371ZM32,31.00252a5.15607,5.15607,0,0,1-5.2-5.111c0-4.489,5.2-6.889,5.2-6.889a5.92135,5.92135,0,0,0,.8,4,7.1305,7.1305,0,0,0,1.877-2.168A6.92321,6.92321,0,0,1,37.2,25.89156,5.15607,5.15607,0,0,1,32,31.00252Z"/></svg>